<?xml version="1.0" standalone="no"?>
<!DOCTYPE svg PUBLIC "-//W3C//DTD SVG 1.0//EN" "http://www.w3.org/TR/2001/REC-SVG-20010904/DTD/svg10.dtd">
<svg xmlns="http://www.w3.org/2000/svg" version="1.1" width="600" height="600">
<desc>New project</desc>
<path ShapeName="Shape3" style="fill:none; stroke:Black; stroke-width:1" d="M115.6 61.2L118.4 61.5 121.1 61.9 123.7 62.4 126.4 63 128.9 63.7 131.4 64.5 133.8 65.4 136.2 66.4 138.5 67.5 140.8 68.7 142.9 69.9 145 71.3 147 72.7 148.9 74.2 150.7 75.7 154.1 79.1 155.6 80.8 157 82.7 158.4 84.5 159.6 86.5 160.7 88.5 161.7 90.5 162.5 92.6 163.3 94.8 163.9 96.9 164.4 99.1 164.7  101.4 164.6 101 263 101 263 225 85 225 85 146.1 83.8 145.6 81.5 144.5 79.2 143.3 77.1 142.1 75 140.7 73 139.3 71.1 137.8 69.3 136.3 65.9 132.9 64.4 131.2 61.6 127.4 60.4 125.5 59.3 123.5 58.3 121.5 57.5 119.4 56.7 117.2 56.1 115.1 55.6 112.9 55.3 110.6 55.1 108.3 55 106 55.1 103.7 55.3 101.4 55.6 99.1 56.1 96.9 56.7 94.8 57.5 92.6 58.3 90.5 59.3 88.5 60.4 86.5 61.6 84.5 63 82.7 64.4 80.8 65.9 79.1 69.3 75.7 71.1 74.2 73 72.7 75 71.3 77.1 69.9 79.2 68.7 81.5 67.5 83.8 66.4 86.2 65.4 88.6 64.5 91.1 63.7 93.6 63 96.3 62.4 98.9 61.9 101.6 61.5 104.4 61.2 110 61 115.6 61.2 Z" transform="rotate(0,0,0)" />
</svg>
