<?xml version="1.0" standalone="no"?>
<!DOCTYPE svg PUBLIC "-//W3C//DTD SVG 1.0//EN" "http://www.w3.org/TR/2001/REC-SVG-20010904/DTD/svg10.dtd">
<svg xmlns="http://www.w3.org/2000/svg" version="1.1" width="600" height="600">
<desc>New project</desc>
<path ShapeName="Shape3" style="fill:none; stroke:Black; stroke-width:1" d="M161.81 155.99L162.71 155.97 163.6 155.94 164.5 155.91 165.39 155.87 166.27 155.83 167.16 155.77 168.92 155.65 171.53 155.41 174.11 155.11 175.81 154.87 176.65 154.75 177.49 154.61 178.33 154.48 179.99 154.18 180.82 154.02 181.64 153.86 182.45 153.69 184.07 153.33 185.67 152.95 186.46 152.75 187.25 152.54 188.03 152.33 188.81 152.11 189.58 151.89 190.35 151.66 191.11 151.43 191.87 151.19 193.37 150.69 194.11 150.43 194.84 150.17 196.3 149.63 197.02 149.35 197.73 149.07 198.44 148.78 199.14 148.49 199.83 148.19 201.21 147.57 201.88 147.26 203.22 146.62 203.88 146.29 204.53 145.95 205.81 145.27 207.07 144.57 207.68 144.21 208.3 143.85 209.5 143.11 210.09 142.74 210.67 142.36 211.25 141.97 211.82 141.58 212.38 141.19 213.48 140.39 214.02 139.99 214.55 139.58 215.07 139.17 215.59 138.75 216.09 138.33 217.09 137.47 217.57 137.04 218.51 136.16 218.97 135.72 219.87 134.82 220.73 133.9 221.14 133.44 221.55 132.97 221.95 132.5 222.34 132.03 222.72 131.56 223.1 131.08 223.46 130.59 223.82 130.11 224.5 129.13 224.83 128.63 225.45 127.63 225.75 127.13 226.04 126.62 226.32 126.11 226.59 125.6 226.85 125.08 227.1 124.57 227.34 124.05 227.58 123.52 227.8 123 228.01 122.47 228.21 121.94 228.4 121.4 228.58 120.87 228.75 120.33 228.91 119.79 229.06 119.25 229.32 118.15 229.44 117.6 229.64 116.5 229.72 115.94 229.8 115.39 229.86 114.83 229.91 114.26 229.95 113.7 229.98 113.14 230 112 229.98 111 292 111 292 206 159 206 159 156 158.19 155.99 157.29 155.97 156.4 155.94 155.5 155.91 154.61 155.87 153.73 155.83 152.84 155.77 151.08 155.65 148.47 155.41 145.89 155.11 144.19 154.87 143.35 154.75 142.51 154.61 141.67 154.48 140.01 154.18 139.18 154.02 138.36 153.86 137.55 153.69 135.93 153.33 134.33 152.95 133.54 152.75 132.75 152.54 131.97 152.33 131.19 152.11 130.42 151.89 129.65 151.66 128.89 151.43 128.13 151.19 126.63 150.69 125.89 150.43 125.16 150.17 123.7 149.63 122.98 149.35 122.27 149.07 121.56 148.78 120.86 148.49 120.17 148.19 118.79 147.57 118.12 147.26 116.78 146.62 116.12 146.29 115.47 145.95 114.19 145.27 112.93 144.57 112.32 144.21 111.7 143.85 110.5 143.11 109.91 142.74 109.33 142.36 108.75 141.97 108.18 141.58 107.62 141.19 106.52 140.39 105.98 139.99 105.45 139.58 104.93 139.17 104.41 138.75 103.91 138.33 102.91 137.47 102.43 137.04 101.49 136.16 101.03 135.72 100.13 134.82 99.27 133.9 98.86 133.44 98.45 132.97 98.05 132.5 97.66 132.03 97.28 131.56 96.9 131.08 96.54 130.59 96.18 130.11 95.5 129.13 95.17 128.63 94.55 127.63 94.25 127.13 93.96 126.62 93.68 126.11 93.41 125.6 93.15 125.08 92.9 124.57 92.66 124.05 92.42 123.52 92.2 123 91.99 122.47 91.79 121.94 91.6 121.4 91.42 120.87 91.25 120.33 91.09 119.79 90.94 119.25 90.68 118.15 90.56 117.6 90.36 116.5 90.28 115.94 90.2 115.39 90.14 114.83 90.09 114.26 90.05 113.7 90.02 113.14 90 112 90.02 110.86 90.05 110.3 90.09 109.74 90.14 109.17 90.2 108.61 90.28 108.06 90.36 107.5 90.56 106.4 90.68 105.85 90.94 104.75 91.09 104.21 91.25 103.67 91.42 103.13 91.6 102.6 91.79 102.06 91.99 101.53 92.2 101 92.42 100.48 92.66 99.95 92.9 99.43 93.15 98.92 93.41 98.4 93.68 97.89 93.96 97.38 94.25 96.87 94.55 96.37 95.17 95.37 95.5 94.87 96.18 93.89 96.54 93.41 96.9 92.92 97.28 92.44 97.66 91.97 98.05 91.5 98.45 91.03 98.86 90.56 99.27 90.1 100.13 89.18 101.03 88.28 101.49 87.84 102.43 86.96 102.91 86.53 103.91 85.67 104.41 85.25 104.93 84.83 105.45 84.42 105.98 84.01 106.52 83.61 107.62 82.81 108.18 82.42 108.75 82.03 109.33 81.64 109.91 81.26 110.5 80.89 111.7 80.15 112.32 79.79 112.93 79.43 114.19 78.73 115.47 78.05 116.12 77.71 116.78 77.38 118.12 76.74 118.79 76.43 120.17 75.81 120.86 75.51 121.56 75.22 122.27 74.93 122.98 74.65 123.7 74.37 125.16 73.83 125.89 73.57 126.63 73.31 128.13 72.81 128.89 72.57 129.65 72.34 130.42 72.11 131.19 71.89 131.97 71.67 132.75 71.46 133.54 71.25 134.33 71.05 135.93 70.67 137.55 70.31 138.36 70.14 139.18 69.98 140.01 69.82 141.67 69.52 142.51 69.39 143.35 69.25 144.19 69.13 145.89 68.89 148.47 68.59 151.08 68.35 152.84 68.23 153.73 68.17 154.61 68.13 155.5 68.09 156.4 68.06 157.29 68.03 158.19 68.01 159.1 68 160.9 68 161.81 68.01 162.71 68.03 163.6 68.06 164.5 68.09 165.39 68.13 166.27 68.17 167.16 68.23 168.92 68.35 171.53 68.59 174.11 68.89 175.81 69.13 176.65 69.25 177.49 69.39 178.33 69.52 179.99 69.82 180.82 69.98 181.64 70.14 182.45 70.31 184.07 70.67 185.67 71.05 186.46 71.25 187.25 71.46 188.03 71.67 188.81 71.89 189.58 72.11 190.35 72.34 191.11 72.57 191.87 72.81 193.37 73.31 194.11 73.57 194.84 73.83 196.3 74.37 197.02 74.65 197.73 74.93 198.44 75.22 199.14 75.51 199.83 75.81 201.21 76.43 201.88 76.74 203.22 77.38 203.88 77.71 204.53 78.05 205.81 78.73 207.07 79.43 207.68 79.79 208.3 80.15 209.5 80.89 210.09 81.26 210.67 81.64 211.25 82.03 211.82 82.42 212.38 82.81 213.48 83.61 214.02 84.01 214.55 84.42 215.07 84.83 215.59 85.25 216.09 85.67 217.09 86.53 217.57 86.96 218.51 87.84 218.97 88.28 219.87 89.18 220.73 90.1 221.14 90.56 221.55 91.03 221.95 91.5 222.34 91.97 222.72 92.44 223.1 92.92 223.46 93.41 223.82 93.89 224.5 94.87 224.83 95.37 225.45 96.37 225.75 96.87 226.04 97.38 226.32 97.89 226.59 98.4 226.85 98.92 227.1 99.43 227.34 99.95 227.58 100.48 227.8 101 228.01 101.53 228.21 102.06 228.4 102.6 228.58 103.13 228.75 103.67 228.91 104.21 229.06 104.75 229.32 105.85 229.44 106.4 229.64 107.5 229.72 108.06 229.8 108.61 229.86 109.17 229.91 109.74 229.95 110.3 229.98 110.86 229.98 111 159 111 159 156 160.9 156 Z " transform="rotate(0,0,0)" />
</svg>
